<svg xmlns="http://www.w3.org/2000/svg" viewBox="0 0 500 500" fill="none">
  <style>
    .navy-emblem { fill: #071D49; }
    .cyan-chevron { fill: #00A3FF; }
    @media (prefers-color-scheme: dark) {
      .navy-emblem { fill: #FFFFFF; }
    }
  </style>
  <g>
    <!-- Left outer frame and P emblem -->
    <path class="navy-emblem" d="M 218 36 L 68 122 C 45 135 30 160 30 186 L 30 314 C 30 340 45 365 68 378 L 132 415 L 132 345 L 88 320 C 80 315 75 306 75 296 L 75 204 C 75 194 80 185 88 180 L 198 116 L 218 105 Z M 160 160 L 330 160 C 370 160 400 190 400 230 C 400 270 370 300 330 300 L 215 300 L 215 480 L 160 480 Z M 215 215 L 215 245 L 320 245 C 335 245 345 238 345 230 C 345 222 335 215 320 215 Z" />
    <!-- Right Cyan Chevron -->
    <path class="cyan-chevron" d="M 296 36 L 432 115 C 455 128 470 153 470 179 L 470 321 C 470 347 455 372 432 385 L 296 464 L 296 394 L 412 327 C 420 322 425 313 425 303 L 425 197 C 425 187 420 178 412 173 L 296 106 Z" />
  </g>
</svg>